<svg width="20" height="20" viewBox="0 0 20 20" fill="none" xmlns="http://www.w3.org/2000/svg">
    <path d="M1.967 12.164c-.313-1.726-.47-2.59-.025-3.175a1.66 1.66 0 0 1 .094-.112c.494-.544 1.369-.544 3.119-.544h9.689c1.75 0 2.625 0 3.119.544.033.036.064.073.094.112.445.585.288 1.449-.025 3.175-.45 2.482-.675 3.723-1.524 4.485a3.36 3.36 0 0 1-.178.15c-.9.7-2.158.7-4.674.7H8.343c-2.516 0-3.774 0-4.674-.7a3.321 3.321 0 0 1-.179-.15c-.848-.762-1.073-2.003-1.523-4.485z" stroke="#6F788F" stroke-width="1.5"/>
    <path d="M6.684 4.26h6.49c1.09 0 2.457-.157 3.157.864.336.49.336 1.844.336 3.21m-6.655-4.075L9.375 3.02c-.223-.435-.432-.961-.888-1.2-.295-.153-.65-.153-1.36-.153-1.667 0-2.5 0-3.057.454-.931.76-.714 2.321-.714 3.38v2.832" stroke="#6F788F" stroke-width="1.5" stroke-linecap="round"/>
</svg>
